<?xml version="1.0" encoding="UTF-8"?>
<svg version="1.1" xmlns="http://www.w3.org/2000/svg" width="1069" height="1069">
<path d="M0 0 C2.08223781 0.00544324 4.16446425 0.00780833 6.24670792 0.00987244 C26.66724563 0.04140926 46.78104994 0.61704116 67.04880142 3.31785583 C69.37687009 3.59957171 71.70499537 3.88082018 74.03317642 4.16160583 C142.95288428 12.88464125 211.27106684 35.84072233 271.04880142 71.31785583 C271.76954849 71.74340759 272.49029556 72.16895935 273.23288345 72.60740662 C284.7663611 79.45065325 295.97906022 86.75064039 307.04880142 94.31785583 C307.76954849 94.80898865 308.49029556 95.30012146 309.23288345 95.80613708 C319.30964029 102.70135864 328.89372855 110.04632711 338.27975845 117.85301208 C340.78671554 119.9288805 343.32674882 121.96333331 345.86130142 124.00535583 C350.46653498 127.77390282 354.87753677 131.72573887 359.24802017 135.76316833 C360.69955996 137.08716697 362.15503649 138.40800448 363.65304947 139.67918396 C370.28390188 145.3194436 376.39707272 151.4800451 382.548069 157.63182068 C384.47324844 159.55481766 386.40629173 161.46966158 388.33981705 163.38426208 C394.64123568 169.65766585 400.66319408 175.95207767 406.1586647 182.9540863 C408.16947458 185.46876742 410.29917561 187.83078012 412.48630142 190.19285583 C417.22414085 195.40611859 421.48911376 200.92397016 425.71432877 206.55076599 C427.05887202 208.33119118 428.42108005 210.09682613 429.78708267 211.86082458 C443.54734869 229.75034953 455.77286882 248.7800236 467.04880142 268.31785583 C467.68543716 269.41758728 467.68543716 269.41758728 468.33493423 270.53953552 C513.59975822 349.17967011 537.5285012 439.5714668 537.36447525 530.21702576 C537.35986184 532.98021301 537.36672485 535.74295804 537.38498306 538.50608826 C537.79588029 601.3729559 526.26783587 664.48644074 504.04880142 723.31785583 C503.65144791 724.3710199 503.25409439 725.42418396 502.84469986 726.50926208 C480.72374941 784.36137798 448.27356379 837.16768191 408.17380142 884.25535583 C407.72834976 884.78024597 407.2828981 885.30513611 406.82394791 885.84593201 C397.93725504 896.21296123 388.51204225 906.04122274 378.86032486 915.69163513 C377.04524585 917.50891572 375.23836235 919.33409416 373.43161392 921.15965271 C367.34197614 927.27788083 361.20675931 933.07788637 354.41452408 938.41966248 C351.98081102 940.37240954 349.70130562 942.43607484 347.42380142 944.56785583 C341.03618825 950.37937098 334.12601909 955.49590064 327.22604752 960.67576599 C325.17317357 962.22405374 323.13443989 963.78897037 321.09958267 965.36082458 C310.79295871 973.27867711 300.02840515 980.3716745 289.04880142 987.31785583 C287.9427858 988.02426208 286.83677017 988.73066833 285.69723892 989.45848083 C207.45789498 1038.59031159 112.93718146 1069.18145503 20.06052017 1069.52098083 C18.12567261 1069.53143433 18.12567261 1069.53143433 16.15173721 1069.542099 C12.01325426 1069.56136349 7.87482434 1069.56627459 3.73630142 1069.56785583 C3.03161602 1069.56844498 2.32693062 1069.56903412 1.60089111 1069.56964111 C-19.73929605 1069.58223668 -40.76154427 1069.14152028 -61.95119858 1066.31785583 C-64.27926725 1066.03613996 -66.60739253 1065.75489149 -68.93557358 1065.47410583 C-125.8267897 1058.27349358 -180.23174477 1040.81841468 -231.95119858 1016.31785583 C-232.81454819 1015.90954529 -233.6778978 1015.50123474 -234.56740952 1015.08055115 C-263.25676304 1001.40241735 -290.52165666 984.34825369 -315.95119858 965.31785583 C-316.67677963 964.77773865 -317.40236069 964.23762146 -318.14992905 963.68113708 C-330.80456935 954.23712455 -342.80295868 944.18016163 -354.47463608 933.54832458 C-355.80561956 932.34959971 -357.14234764 931.15647565 -358.51101303 930.0009613 C-365.15714111 924.34691195 -371.28497559 918.17016269 -377.45046616 912.00389099 C-379.3756456 910.08089401 -381.30868889 908.16605009 -383.2422142 906.25144958 C-389.54363283 899.97804582 -395.56559123 893.683634 -401.06106186 886.68162537 C-403.07187173 884.16694425 -405.20157277 881.80493155 -407.38869858 879.44285583 C-412.1228398 874.23366238 -416.38573241 868.72038585 -420.60793686 863.09812927 C-421.98024516 861.27935935 -423.36857294 859.47375299 -424.75979233 857.66941833 C-480.12647791 785.44756094 -514.73810751 699.06913001 -527.76369858 609.25535583 C-527.86297653 608.58287811 -527.96225449 607.91040039 -528.06454086 607.21754456 C-531.34834223 584.69653831 -532.30785254 562.15282909 -532.26687241 539.41868591 C-532.262259 536.65549866 -532.26912201 533.89275363 -532.28738022 531.12962341 C-532.54756882 491.31811011 -527.71088447 452.1658881 -518.95119858 413.31785583 C-518.72206772 412.29804626 -518.49293686 411.27823669 -518.25686264 410.2275238 C-509.37023448 371.33401548 -495.28697964 334.18832982 -477.95119858 298.31785583 C-477.29208481 296.94403748 -477.29208481 296.94403748 -476.61965561 295.54246521 C-470.95396933 283.77774595 -464.77440505 272.44795706 -457.95119858 261.31785583 C-457.39271225 260.39955994 -456.83422592 259.48126404 -456.25881577 258.53514099 C-448.0306538 245.03325392 -439.42500881 231.97580975 -429.95119858 219.31785583 C-429.14320984 218.22462068 -428.33586544 217.13090886 -427.52932358 216.03660583 C-419.82467494 205.65445519 -412.01822701 195.364053 -403.23293686 185.86766052 C-401.1117065 183.49722078 -399.15883583 181.06188304 -397.20119858 178.55613708 C-391.20781427 171.19950095 -384.50097004 164.56789903 -377.77737045 157.88328552 C-375.58037018 155.69700708 -373.3942718 153.50023646 -371.20901108 151.30223083 C-364.44048967 144.5276222 -357.67576938 137.99032391 -350.15090561 132.05418396 C-347.4869831 129.95142959 -345.04181024 127.71080938 -342.57619858 125.38035583 C-336.66021104 119.95597853 -330.37847306 115.10847253 -323.95119858 110.31785583 C-323.24430893 109.78643982 -322.53741928 109.2550238 -321.80910873 108.70750427 C-310.44827748 100.17164693 -298.90452285 92.00355519 -286.95119858 84.31785583 C-286.14488998 83.79868591 -285.33858139 83.27951599 -284.5078392 82.74461365 C-220.0182892 41.466283 -147.13224814 15.14067158 -71.38869858 4.50535583 C-70.6923027 4.40607788 -69.99590683 4.30679993 -69.27840805 4.20451355 C-46.2420799 0.96281931 -23.24914923 -0.06326287 0 0 Z " fill="#A6A5A5" transform="translate(531.9511985778809,-0.3178558349609375)"/>
<path d="M0 0 C7.76359089 4.35299605 13.93724858 9.18721404 18.65234375 16.76171875 C19.03914307 17.37635986 19.42594238 17.99100098 19.82446289 18.62426758 C23.04732556 23.89326218 25.40554089 29.1602408 27.02734375 35.13671875 C27.25035156 35.92433594 27.47335937 36.71195312 27.703125 37.5234375 C31.43403285 53.69070484 30.35660938 70.90393785 22.171875 85.4296875 C20.52460399 88.05513181 18.80512594 90.59907804 17.02734375 93.13671875 C16.69734375 93.79671875 16.36734375 94.45671875 16.02734375 95.13671875 C16.98833984 95.88115234 16.98833984 95.88115234 17.96875 96.640625 C27.31418815 103.98048477 34.58968989 111.88684466 42.02734375 121.13671875 C43.46458356 122.86610168 44.90208444 124.59526768 46.33984375 126.32421875 C54.89787543 136.79889295 62.79536379 147.74673592 70.52001953 158.84350586 C73.90545346 163.66302418 77.48320781 168.2691395 81.21484375 172.82421875 C88.9189634 182.25699468 95.30568587 192.38443978 101.02734375 203.13671875 C101.70241441 200.07600941 102.36589297 197.01289785 103.02734375 193.94921875 C103.218125 193.08490234 103.40890625 192.22058594 103.60546875 191.33007812 C103.7859375 190.48896484 103.96640625 189.64785156 104.15234375 188.78125 C104.40371094 187.62653198 104.40371094 187.62653198 104.66015625 186.44848633 C105.62162065 180.39522409 104.43321793 178.19687467 101.02734375 173.13671875 C98.3964479 167.09918862 97.50398993 161.43188927 97.58984375 154.88671875 C97.59814209 154.05897949 97.60644043 153.23124023 97.61499023 152.37841797 C98.04045034 136.78023307 105.36120072 121.46949572 116.02734375 110.13671875 C126.82479277 100.08706603 136.89233043 95.75536646 151.56640625 95.84765625 C156.36875289 96.24875518 159.02405171 97.49303533 163.02734375 100.13671875 C163.45917969 100.6575 163.89101563 101.17828125 164.3359375 101.71484375 C166.85059604 103.82878303 169.16643927 103.7506283 172.40234375 104.07421875 C183.68480258 105.50635749 196.02605666 107.99100017 203.70703125 117.13671875 C206.43231484 121.26495898 206.54630526 125.36138575 206.02734375 130.13671875 C205.03577687 134.59514602 203.82203213 138.98332408 202.58148193 143.37722778 C193.0862277 177.20741918 187.43498608 211.30832762 183.02734375 246.13671875 C182.92488342 246.93360107 182.8224231 247.7304834 182.71685791 248.55151367 C179.08399473 276.97584508 179.71031339 305.53497335 180.02734375 334.13671875 C181.12175781 334.25273438 182.21617187 334.36875 183.34375 334.48828125 C187.16660258 335.16123303 188.84712281 335.96696157 191.140625 339.13671875 C193.0202817 343.37629686 192.83573661 347.64281829 192.02734375 352.13671875 C190.4411704 355.81567595 188.46347817 358.9638201 185.34375 361.51171875 C183.76967351 363.12467861 183.76967351 363.12467861 183.91796875 365.73046875 C184.09585938 367.1690625 184.09585938 367.1690625 184.27734375 368.63671875 C184.43976563 370.0753125 184.43976563 370.0753125 184.60546875 371.54296875 C184.97345716 374.24143159 184.97345716 374.24143159 186.02734375 377.13671875 C188.11655774 378.53732321 188.11655774 378.53732321 190.65234375 379.82421875 C195.8907426 382.8122135 199.38211136 386.38101821 203.02734375 391.13671875 C207.87574358 389.62656143 212.32199164 388.0153328 216.83984375 385.69921875 C232.14719808 378.7546016 249.65861571 378.35518901 266.18530273 377.26318359 C273.8652494 376.7333719 281.08128824 375.94603506 288.52929688 373.84008789 C291.01366733 373.14056959 293.49162541 372.61259311 296.02734375 372.13671875 C291.95377667 376.42636895 287.52180737 380.02980911 282.83984375 383.63671875 C282.05029297 384.24765381 281.26074219 384.85858887 280.44726562 385.48803711 C272.83491148 391.34444874 265.06398875 396.96735591 257.24658203 402.54541016 C255.07987779 404.09904913 252.92485185 405.66746138 250.7734375 407.2421875 C249.71189453 408.01671265 249.71189453 408.01671265 248.62890625 408.80688477 C247.18549449 409.86062095 245.744085 410.9171053 244.3046875 411.97631836 C240.32634758 414.87071605 236.29798067 417.63211991 232.13526917 420.2565918 C229.82552109 421.71411411 227.53121447 423.19521207 225.2361145 424.67565918 C223.56551848 425.73745567 221.87162784 426.76231611 220.17749023 427.78613281 C214.45809603 431.34407825 214.45809603 431.34407825 210.94580078 436.86230469 C210.45730628 439.63248937 210.21224427 442.33204204 210.02734375 445.13671875 C206.60645259 457.86561609 200.23467415 469.67162843 189.02734375 477.13671875 C182.04196687 480.93900838 175.03002472 483.73214957 167.02734375 482.13671875 C160.96805606 479.96318217 156.21170318 477.01847142 152.02734375 472.13671875 C150.35581187 472.79109127 148.69093143 473.46240557 147.02734375 474.13671875 C146.34494629 474.39952637 145.66254883 474.66233398 144.95947266 474.93310547 C134.9384645 478.66935973 134.9384645 478.66935973 128.08105469 486.24072266 C127.03275667 491.05243105 127.15284905 495.91093441 127.14404297 500.81396484 C126.65974393 510.4533394 121.08358858 522.36419107 114.078125 528.9765625 C106.91151114 534.55969596 100.77051429 536.89891464 91.62890625 536.66796875 C82.44692877 535.31357728 75.87674809 528.72144048 70.03515625 521.90625 C67.22930965 518.03592853 65.18503518 513.95258355 63.21875 509.60546875 C62.14551091 507.03522091 62.14551091 507.03522091 60.02734375 505.13671875 C60.49060059 504.68321045 60.95385742 504.22970215 61.43115234 503.76245117 C66.56751989 498.383954 68.55348615 493.48156947 70.65234375 486.44921875 C73.83414047 477.02397247 73.83414047 477.02397247 78.07421875 473.87109375 C81.36793242 472.71133541 84.63090941 471.93396561 88.02734375 471.13671875 C90.76521052 469.7146407 93.30898156 468.12872427 95.90625 466.46875 C97.89836031 465.2177194 99.906894 464.151265 102.02734375 463.13671875 C102.79046875 463.77609375 103.55359375 464.41546875 104.33984375 465.07421875 C108.94075567 468.60515116 113.42142623 468.81649143 119.02734375 468.13671875 C121.45815289 467.24891127 123.69396697 466.21324427 125.984375 465.01171875 C128.02734375 464.13671875 128.02734375 464.13671875 132.02734375 464.13671875 C133.78125 465.01171875 133.78125 465.01171875 135.58984375 466.13671875 C142.0262061 469.49846191 148.94845298 468.97345554 155.77734375 466.94921875 C166.47730664 462.81037392 171.34122135 455.24861987 175.90234375 445.01171875 C177.70359989 440.45628387 178.87251488 436.99645272 178.02734375 432.13671875 C175.15139539 429.82979335 175.15139539 429.82979335 171.58984375 430.07421875 C167.81144888 430.8074076 167.81144888 430.8074076 165.90234375 434.07421875 C165.24862438 435.4147572 164.62643392 436.77089177 164.02734375 438.13671875 C161.10259301 444.68898719 158.47348929 450.44930499 152.02734375 454.13671875 C148.15234375 455.07421875 148.15234375 455.07421875 145.02734375 455.13671875 C144.02734375 454.13671875 144.02734375 454.13671875 143.78710938 451.59912109 C144.08739758 447.27118686 145.34818694 443.77245256 146.87109375 439.73828125 C147.46366933 438.10811932 148.05611316 436.47790949 148.6484375 434.84765625 C149.58605013 432.30319831 150.52784794 429.76036314 151.47314453 427.21875 C152.3874731 424.74991931 153.28608253 422.27576587 154.18359375 419.80078125 C154.46795288 419.05156403 154.75231201 418.3023468 155.04528809 417.53042603 C156.85416297 412.52088406 157.40524684 408.4680593 157.02734375 403.13671875 C155.96446265 401.06152261 155.96446265 401.06152261 154.02734375 400.13671875 C151.85239294 399.66364419 151.85239294 399.66364419 149.52734375 399.76171875 C148.75390625 399.75398438 147.98046875 399.74625 147.18359375 399.73828125 C144.57574647 400.22016607 143.68862509 401.12401251 142.02734375 403.13671875 C141.05796875 402.82734375 140.08859375 402.51796875 139.08984375 402.19921875 C135.48979741 401.16228857 131.96345938 400.71229576 128.23828125 400.3828125 C126.02734375 400.13671875 126.02734375 400.13671875 123.70678711 399.49072266 C120.39001791 399.05251625 118.9203918 399.74814886 115.9453125 401.2265625 C115.01396484 401.68095703 114.08261719 402.13535156 113.12304688 402.60351562 C112.16333984 403.08884766 111.20363281 403.57417969 110.21484375 404.07421875 C109.23580078 404.55568359 108.25675781 405.03714844 107.24804688 405.53320312 C104.83476628 406.72218527 102.4285508 407.92358746 100.02734375 409.13671875 C99.03734375 407.65171875 99.03734375 407.65171875 98.02734375 406.13671875 C95.45008867 403.05833074 94.00958 401.3413513 90.02734375 400.51171875 C85.9768245 401.35557693 84.6765492 402.9950328 82.02734375 406.13671875 C80.84339743 409.45628407 80.84339743 409.45628407 80.02734375 413.01171875 C78.3648944 418.13356917 76.89580457 420.87974689 72.13476562 423.61376953 C65.09269856 427.13671875 65.09269856 427.13671875 62.02734375 427.13671875 C62.66178155 423.44362293 63.71257353 420.17941769 65.08984375 416.69921875 C67.05739919 411.40250246 67.84632285 407.59365604 66.02734375 402.13671875 C64.4485442 401.85952494 62.86381308 401.61597732 61.27734375 401.38671875 C60.395625 401.2475 59.51390625 401.10828125 58.60546875 400.96484375 C55.95972579 400.92369989 55.95972579 400.92369989 53.9140625 402.56640625 C51.29832026 406.12988118 50.02190775 409.8555799 48.58984375 414.01171875 C48.28038818 414.85581299 47.97093262 415.69990723 47.65209961 416.56958008 C46.25204765 420.42181994 44.95345428 424.22390036 44.02734375 428.21875 C42.55764503 433.87096632 41.29281763 437.63656337 36.23046875 440.7734375 C26.28579436 446.13671875 26.28579436 446.13671875 22.02734375 446.13671875 C22.68837143 443.65369309 23.36188142 441.17470354 24.04541016 438.69775391 C24.5538987 436.85369278 25.06122714 435.00925942 25.55267334 433.1605835 C34.45294736 399.74412686 34.45294736 399.74412686 46.55688477 392.22998047 C50.64677077 390.12487785 54.78584064 388.23072848 59.03417969 386.46826172 C63.76533796 384.36355232 67.97266857 381.55528514 72.27734375 378.69921875 C73.79991266 377.72316809 75.32456628 376.75035966 76.8515625 375.78125 C77.55716309 375.33217285 78.26276367 374.8830957 78.98974609 374.42041016 C92.1384126 366.13671875 92.1384126 366.13671875 95.02734375 366.13671875 C88.73071335 339.83698072 77.17023 315.08674782 65.69580078 290.703125 C64.26350985 287.64153502 62.8724428 284.56567828 61.4921875 281.48046875 C57.89234859 273.71993206 54.61989165 268.48618246 46.3125 265.14453125 C45.22839844 264.81195313 44.14429688 264.479375 43.02734375 264.13671875 C41.96580078 263.74915405 41.96580078 263.74915405 40.8828125 263.35375977 C33.84483898 260.93303283 27.29878354 260.71782577 19.90234375 260.82421875 C18.77441406 260.82099609 17.64648438 260.81777344 16.484375 260.81445312 C10.28750702 260.85431602 4.97572721 261.44392482 -0.97265625 263.13671875 C-2.29265625 263.13671875 -3.61265625 263.13671875 -4.97265625 263.13671875 C-5.23859933 292.88756679 -4.48765408 321.7270735 -0.29394531 351.21801758 C-0.1234668 352.42224365 0.04701172 353.62646973 0.22265625 354.8671875 C0.37750488 355.93348389 0.53235352 356.99978027 0.69189453 358.09838867 C1.02748919 361.13803606 1.08626068 364.08133253 1.02734375 367.13671875 C0.38667969 367.07226562 -0.25398438 367.0078125 -0.9140625 366.94140625 C-4.30920767 367.03248317 -6.03778938 367.34768524 -8.97265625 369.13671875 C-12.36955032 374.58432505 -14.14685901 381.02186402 -15.97265625 387.13671875 C-26.42792027 388.01340238 -35.98856777 386.62446953 -46.22265625 384.44921875 C-47.39344727 384.2054248 -48.56423828 383.96163086 -49.77050781 383.71044922 C-62.48009144 380.87754709 -76.27845408 376.75627214 -83.8203125 365.33984375 C-94.14694947 345.75221786 -94.18014814 323.39769383 -94.16015625 301.82421875 C-94.16024689 300.32930908 -94.16024689 300.32930908 -94.16033936 298.80419922 C-94.14571393 281.82782599 -93.4648897 265.05225083 -91.97265625 248.13671875 C-91.82563739 246.27743711 -91.67973729 244.41806654 -91.53515625 242.55859375 C-90.57070248 230.79685564 -88.84787799 219.18805667 -86.98046875 207.5390625 C-86.1746303 202.49991642 -85.4555855 197.45451866 -84.77441406 192.3972168 C-83.70320881 184.46297465 -82.49322498 176.76993043 -79.97265625 169.13671875 C-80.71902344 168.86988281 -81.46539062 168.60304688 -82.234375 168.328125 C-86.57492005 166.43958543 -89.59091357 163.39344322 -92.97265625 160.13671875 C-94.00326172 159.14478516 -94.00326172 159.14478516 -95.0546875 158.1328125 C-106.66235269 146.08125954 -111.35612992 129.24087034 -111.18359375 112.8671875 C-110.63090434 103.09277292 -108.36330356 93.76960851 -101.97265625 86.13671875 C-95.85834035 80.94979468 -89.51306349 77.64433406 -81.421875 77.8984375 C-71.1007562 78.90256549 -62.95418425 84.02223181 -55.77734375 91.390625 C-54.15161768 93.36849998 -54.15161768 93.36849998 -51.97265625 93.13671875 C-51.37453125 92.39421875 -50.77640625 91.65171875 -50.16015625 90.88671875 C-46.05395482 86.49258247 -39.58677039 85.60806052 -33.97265625 84.13671875 C-34.4315625 83.30011719 -34.89046875 82.46351563 -35.36328125 81.6015625 C-42.89267089 67.31786745 -45.76512004 54.19624011 -44.97265625 38.13671875 C-44.94042969 37.17636719 -44.90820312 36.21601563 -44.875 35.2265625 C-44.16192782 23.68942023 -39.19943366 12.98878743 -30.765625 5.0625 C-21.0808886 -2.80737949 -11.51252249 -5.7663777 0 0 Z " fill="#E7553C" transform="translate(472.97265625,228.86328125)"/>
<path d="M0 0 C0.86625 0.53625 1.7325 1.0725 2.625 1.625 C10.36718925 9.36718925 14.06808406 19.23620015 14.5 30 C14.0587221 49.99791202 4.48974583 68.0807568 -9.75 81.75 C-20.29165657 90.92725109 -32.36909735 94.76783027 -46.1796875 94.37109375 C-54.41272945 93.57136064 -58.53044017 88.87148017 -63.65234375 82.76953125 C-65 81 -65 81 -66 79 C-69.33312026 80.49494638 -71.8882925 82.41220033 -74.6875 84.75 C-76.13382813 85.94882812 -76.13382813 85.94882812 -77.609375 87.171875 C-78.73967582 88.11447244 -79.86987659 89.05718986 -81 90 C-90.49978044 97.90554286 -100.00690813 105.72179436 -110 113 C-109.01773438 113.23783203 -109.01773438 113.23783203 -108.015625 113.48046875 C-96.65273731 116.38538778 -86.80457383 120.09189187 -78 128 C-77.24976563 128.65742187 -76.49953125 129.31484375 -75.7265625 129.9921875 C-56.81747612 147.61055126 -48.70844611 175.52294739 -43 200 C-42.80100098 200.85142578 -42.60200195 201.70285156 -42.39697266 202.58007812 C-38.44496726 219.9676072 -35.23878296 239.08796254 -44.35546875 255.4296875 C-47.54816292 260.10317549 -50.93063515 262.56280536 -56 265 C-56.66 265.33 -57.32 265.66 -58 266 C-71.8100207 267.22034858 -81.03594798 265.01568337 -91.94897461 256.09985352 C-95.61786391 253.00815291 -99.15367145 249.77508464 -102.69140625 246.53515625 C-123.37001615 227.60403451 -142.98061734 223.41647676 -170.3125 223.5 C-202.1398003 223.59640792 -202.1398003 223.59640792 -214 213 C-220.48851001 205.0483946 -221.58047692 197.03010126 -221 187 C-220.70176495 185.32669646 -220.37996729 183.6566574 -220 182 C-224.54063414 183.33634923 -228.603363 185.21961814 -232.82006836 187.32324219 C-261.35593802 201.51877675 -291.58242433 212.22685514 -321.42431641 223.30126953 C-372.20681694 241.81769743 -372.20681694 241.81769743 -420.47143555 265.91650391 C-423.63460921 267.75026062 -426.42458345 269.23495882 -430 270 C-430.49861891 263.38596676 -429.41363988 259.83377542 -425.75 254.375 C-425.30470947 253.68913818 -424.85941895 253.00327637 -424.40063477 252.29663086 C-390.15886314 200.87774233 -330.03969568 181.13927672 -274.43988037 162.06185913 C-243.34745656 151.49902817 -243.34745656 151.49902817 -213 139 C-211.78183594 138.45883545 -211.78183594 138.45883545 -210.5390625 137.90673828 C-195.65510216 131.27018008 -181.67258051 123.1852588 -167.6953125 114.8359375 C-99.71309067 74.24112252 -99.71309067 74.24112252 -68 75 C-68.33 74.13375 -68.66 73.2675 -69 72.375 C-73.17150752 57.42959896 -68.92979713 41.26636701 -61.6796875 28.07519531 C-53.65366386 14.17068631 -42.28947968 2.02264757 -26.53515625 -2.74609375 C-17.06767263 -4.91479063 -8.32906447 -5.46356064 0 0 Z " fill="#EA7763" transform="translate(764,643)"/>
<path d="M0 0 C-0.32798584 0.87100342 -0.65597168 1.74200684 -0.99389648 2.6394043 C-2.22439671 5.93171769 -3.4393351 9.22898603 -4.64477539 12.53051758 C-5.16551406 13.94743354 -5.69203685 15.3622397 -6.22485352 16.7746582 C-6.99799864 18.82739129 -7.75261357 20.88556419 -8.49609375 22.94921875 C-8.74319092 23.62932007 -8.99028809 24.30942139 -9.24487305 25.01013184 C-10.77916213 29.51781384 -11.1317827 33.23570311 -10.99609375 38.04296875 C-11.13208008 41.20141602 -11.13208008 41.20141602 -12 44 C-16.04486064 47.61713369 -20.68996522 49.54200828 -25.625 51.625 C-27.00006323 52.25042479 -28.37285962 52.88085613 -29.7434082 53.51611328 C-32.50669977 54.78881721 -35.27982308 56.03390128 -38.06591797 57.25585938 C-43.50934369 59.65114461 -48.84207081 62.27018668 -54.1875 64.875 C-59.50832407 67.44672387 -64.8292871 69.95449532 -70.2890625 72.21875 C-79.95426536 76.31039877 -86.04116826 80.05091949 -91.88671875 88.8515625 C-100.58130217 101.80504538 -114.96130166 110.4361818 -130 114 C-133.15179945 114.24857011 -136.27778126 114.2351844 -139.4375 114.1875 C-140.24509766 114.18685547 -141.05269531 114.18621094 -141.88476562 114.18554688 C-145.71564279 114.15776453 -149.34457631 113.97749388 -153.12109375 113.32421875 C-157.57752331 112.95172766 -160.5918465 113.98107776 -164.625 115.625 C-173.2614144 118.85106103 -182.05856615 120.43828649 -191.125 121.875 C-191.81136536 121.98386536 -192.49773071 122.09273071 -193.20489502 122.20489502 C-197.13369669 122.82315314 -201.06536336 123.42011784 -205 124 C-204.21230225 124.61552734 -203.42460449 125.23105469 -202.61303711 125.86523438 C-192.73512081 133.93516805 -187.47466461 147.32190906 -184.25 159.3125 C-184.05132324 160.045896 -183.85264648 160.77929199 -183.64794922 161.53491211 C-180.34700572 174.66090039 -179.58931223 187.85028127 -179.625 201.3125 C-179.62554382 202.09014709 -179.62608765 202.86779419 -179.62664795 203.66900635 C-179.69739197 225.83112716 -180.19032669 251.24261914 -196.64453125 268 C-201.90630701 272.46771009 -207.59306158 274.82560458 -214.5546875 274.4375 C-226.40352048 272.317581 -235.16170025 265.61117151 -241.9375 255.90625 C-244.5347068 252.05993814 -247.042969 248.15820147 -249.54492188 244.24951172 C-265.95945563 218.87308319 -285.27294757 209.27887055 -314.0625 201.875 C-325.84607166 198.8261938 -340.33066913 194.03004721 -347 183 C-350.93365141 175.44903977 -352.76002978 167.90127631 -350.26953125 159.55078125 C-346.66028959 150.87386966 -341.28976216 144.79326355 -334 139 C-332.99582031 138.18660156 -331.99164063 137.37320313 -330.95703125 136.53515625 C-309.36559599 119.5927573 -281.61374551 106.37886891 -253.8125 106.4375 C-252.05691772 106.44003784 -252.05691772 106.44003784 -250.26586914 106.44262695 C-239.97634738 106.65391512 -231.32421543 108.75987703 -222 113 C-220.92878906 113.47566406 -219.85757813 113.95132813 -218.75390625 114.44140625 C-215.39831328 116.03590787 -212.63505196 117.36494804 -210 120 C-204.74360408 119.39903425 -200.01275922 117.11658634 -195.1875 115.0625 C-194.26493408 114.67006104 -193.34236816 114.27762207 -192.3918457 113.87329102 C-183.70470895 110.06456361 -175.83834525 105.31056206 -168 100 C-168.48146484 98.27136719 -168.48146484 98.27136719 -168.97265625 96.5078125 C-172.26480408 83.24007767 -170.23374681 70.10386231 -163.42578125 58.26171875 C-154.10233327 44.28741327 -142.38102635 33.7541853 -127 27 C-125.91138672 26.48759766 -125.91138672 26.48759766 -124.80078125 25.96484375 C-116.033469 22.37442064 -104.747628 22.70571518 -95.875 25.6875 C-90.14255427 28.1147518 -86.35442208 31.63291971 -82 36 C-81.39115967 35.66266846 -80.78231934 35.32533691 -80.1550293 34.9777832 C-77.33485171 33.41842855 -74.5112095 31.86544919 -71.6875 30.3125 C-70.73037109 29.78205078 -69.77324219 29.25160156 -68.78710938 28.70507812 C-51.10362347 19 -51.10362347 19 -47 19 C-48.29981795 23.74319531 -49.7380661 28.40099858 -51.53515625 32.98046875 C-51.94193604 34.02170898 -51.94193604 34.02170898 -52.35693359 35.08398438 C-52.90042959 36.46045749 -53.45378218 37.83308948 -54.01806641 39.20117188 C-55.75244722 43.6032424 -56.41552093 47.19182922 -56 52 C-54.58333333 54.58333333 -54.58333333 54.58333333 -52 56 C-47.68814305 56.46198467 -44.67666162 56.31363888 -41 54 C-37.99408154 48.39062915 -36.11452954 42.4432016 -34.1171875 36.421875 C-33.31033937 34.01916116 -32.50235065 31.61683685 -31.69335938 29.21484375 C-31.14669733 27.56833419 -30.61188687 25.91784343 -30.08886719 24.26367188 C-25.71093666 10.49200001 -25.71093666 10.49200001 -21.56933594 6.88037109 C-19.06238078 5.61367416 -16.69936736 4.75725372 -14 4 C-12.8346875 3.46632813 -11.669375 2.93265625 -10.46875 2.3828125 C-8.99921875 1.76019531 -8.99921875 1.76019531 -7.5 1.125 C-5.99953125 0.47917969 -5.99953125 0.47917969 -4.46875 -0.1796875 C-2 -1 -2 -1 0 0 Z " fill="#EA7763" transform="translate(488,641)"/>
<path d="M0 0 C1.7013208 0.00640503 1.7013208 0.00640503 3.43701172 0.01293945 C12.46110631 0.19532902 20.0759929 1.42411864 28.1875 5.5 C28.84806396 5.8297583 29.50862793 6.1595166 30.18920898 6.49926758 C35.82167509 9.60844136 38.27237997 13.08096956 41 18.8125 C41.4132251 19.64007813 41.8264502 20.46765625 42.25219727 21.3203125 C43.59268328 24.03394866 44.89357716 26.76388239 46.1875 29.5 C46.6299707 30.42345215 47.07244141 31.3469043 47.52832031 32.29833984 C56.59426152 51.29629091 65.04467336 70.74267882 71.8125 90.6875 C72.04815674 91.37505371 72.28381348 92.06260742 72.52661133 92.77099609 C74.01887101 97.35808004 74.70945634 101.72487496 75.1875 106.5 C74.22972656 107.02207031 73.27195312 107.54414062 72.28515625 108.08203125 C64.28417566 112.48882531 56.54597608 117.14199373 48.92944336 122.18286133 C42.15283713 126.6208376 35.13757788 130.60338856 28.05395508 134.52856445 C27.20341553 135.00382568 26.35287598 135.47908691 25.4765625 135.96875 C24.72068848 136.38576172 23.96481445 136.80277344 23.18603516 137.23242188 C19.5637522 139.52986789 17.87190123 141.70149753 16.48583984 145.75610352 C16.18898285 146.61031387 15.89212585 147.46452423 15.58627319 148.34461975 C15.12204453 149.72284157 15.12204453 149.72284157 14.6484375 151.12890625 C14.32211334 152.07434799 13.99578918 153.01978973 13.65957642 153.99388123 C12.61897827 157.01399692 11.59042401 160.03804976 10.5625 163.0625 C9.52491019 166.08960347 8.4849071 169.11586615 7.44400024 172.14183044 C6.79712215 174.02514272 6.15266589 175.90928888 5.51083374 177.79432678 C5.22028107 178.64538498 4.92972839 179.49644318 4.63037109 180.37329102 C4.37516693 181.12369156 4.11996277 181.8740921 3.85702515 182.64723206 C3.1875 184.5 3.1875 184.5 2.1875 186.5 C8.69244397 185.21121274 14.46589591 183.34155492 19.1875 178.5 C23.88417633 169.92176257 26.43163386 160.29452683 28.9934082 150.89990234 C30.43835237 146.78575546 32.12845718 142.52952141 36.1875 140.5 C40.0961795 140.24508612 42.89692498 140.26710981 46.1875 142.5 C48.57402003 146.07978004 48.58364614 147.27114 48.1875 151.5 C47.36352651 154.36556533 46.29767779 157.10955714 45.1875 159.875 C44.90132812 160.61105469 44.61515625 161.34710937 44.3203125 162.10546875 C43.61835139 163.90716893 42.90415595 165.70409432 42.1875 167.5 C50.88261843 164.69643197 50.88261843 164.69643197 57.35888672 158.66259766 C58.60112126 155.89084945 59.53216638 153.11794768 60.32470703 150.1875 C61.62048502 145.41081711 62.92142865 143.09645329 67.1875 140.5 C71.05711705 139.85506382 72.61493924 140.13564315 75.9375 142.25 C78.02581102 144.33831102 78.97303948 145.87234906 80.1875 148.5 C80.75033691 148.18659668 81.31317383 147.87319336 81.89306641 147.55029297 C101.48293782 136.85510945 101.48293782 136.85510945 112.34375 139.5703125 C113.2821875 139.87710938 114.220625 140.18390625 115.1875 140.5 C115.9815625 140.70367188 116.775625 140.90734375 117.59375 141.1171875 C119.14219114 141.516587 120.67044003 141.99431334 122.1875 142.5 C122.59097656 142.01402344 122.99445313 141.52804687 123.41015625 141.02734375 C126.15659409 138.66721805 128.5305765 139.01793878 132.0234375 139.16015625 C134.1875 139.5 134.1875 139.5 136.75 141 C139.03769667 144.9786029 138.73747667 149.23608288 137.67724609 153.60040283 C136.95991665 155.81513826 136.16981588 157.98757959 135.34375 160.1640625 C134.91092712 161.35761856 134.91092712 161.35761856 134.46936035 162.57528687 C133.55408183 165.09644797 132.62249307 167.61108987 131.6875 170.125 C130.7536615 172.64641217 129.82383694 175.16898371 128.90563965 177.69613647 C128.33634005 179.26226673 127.75808336 180.82517933 127.16955566 182.38418579 C125.64094796 186.5805227 124.86151257 189.96035635 125.1875 194.5 C129.92245411 194.21590275 133.21569651 193.48642874 136.78125 190.21484375 C139.64059155 186.72803558 141.31172544 182.56840293 143.1875 178.5 C146.56412338 171.91558442 146.56412338 171.91558442 150.1875 169.5 C156.64033019 169.95283019 156.64033019 169.95283019 159.1875 172.5 C160.42133641 180.60806782 156.16825478 188.09557772 152.1875 194.9375 C146.63764893 202.04824668 140.23557681 207.84118592 131.1875 209.5 C124.60157095 210.14180718 119.63597741 209.91719545 113.94140625 206.375 C111.9176254 205.20238917 111.9176254 205.20238917 108.1875 205.5 C106.10152819 206.36183284 106.10152819 206.36183284 104 207.5 C99.29576337 209.67416199 95.32023417 210.32317435 90.1875 209.5 C86.875 208.125 86.875 208.125 84.1875 206.5 C82.85850479 205.82472676 81.52593059 205.15637321 80.1875 204.5 C79.73761719 204.87511719 79.28773438 205.25023437 78.82421875 205.63671875 C71.98852366 211.07513749 64.06997995 215.77979892 55.1875 216.5 C55.02894531 217.08265625 54.87039063 217.6653125 54.70703125 218.265625 C51.16905654 230.69740355 47.30180423 241.9999338 36.1875 249.5 C28.95033002 253.17444651 19.28268403 252.77898415 11.625 250.4375 C6.273833 247.42138769 2.56942408 243.18657551 0.1875 237.5 C-0.80744359 231.96084292 -0.2761199 227.50338234 2.6875 222.6875 C7.67650337 216.04720678 14.41032433 212.92239898 22.1875 210.5 C25.1875 210.3125 25.1875 210.3125 27.1875 210.5 C27.1875 209.84 27.1875 209.18 27.1875 208.5 C26.011875 208.314375 26.011875 208.314375 24.8125 208.125 C22.1875 207.5 22.1875 207.5 20.1875 205.5 C17.37703852 205.90973874 15.26126157 206.90624493 12.625 208.0625 C6.86144895 210.23053969 0.76366826 210.61046293 -5.15234375 208.7734375 C-10.48107389 206.33234325 -13.5257808 203.20211032 -16.0625 197.875 C-18.5352355 186.74769027 -15.21241662 177.60956478 -11.3125 167.3125 C-10.78093019 165.86973716 -10.2509696 164.42638035 -9.72265625 162.98242188 C-8.43773404 159.48124493 -7.13128187 155.98858619 -5.8125 152.5 C-9.08840016 153.7580351 -12.35719535 155.03359907 -15.625 156.3125 C-16.55376953 156.66892578 -17.48253906 157.02535156 -18.43945312 157.39257812 C-19.33212891 157.74384766 -20.22480469 158.09511719 -21.14453125 158.45703125 C-21.96671143 158.77647705 -22.7888916 159.09592285 -23.63598633 159.42504883 C-26.53610383 160.85737832 -28.29420561 162.38587431 -29.67111206 165.34567261 C-29.8980777 166.03452545 -30.12504333 166.7233783 -30.35888672 167.43310547 C-30.62281219 168.2175705 -30.88673767 169.00203552 -31.15866089 169.81027222 C-31.43372467 170.65405426 -31.70878845 171.4978363 -31.9921875 172.3671875 C-32.59735264 174.15765473 -33.20283121 175.94801605 -33.80859375 177.73828125 C-34.75058139 180.55639017 -35.6878111 183.37594309 -36.61865234 186.19775391 C-37.52212319 188.92534813 -38.44361716 191.64634495 -39.3671875 194.3671875 C-39.63820282 195.20692108 -39.90921814 196.04665466 -40.18844604 196.91183472 C-42.08202426 202.45298386 -44.31403005 206.75076502 -49.8125 209.5 C-54.14577174 209.99055907 -56.13250344 209.97744439 -59.75 207.4375 C-62.41371117 203.64372954 -62.24204507 202.10743604 -61.8125 197.5 C-60.74453597 193.8680163 -59.34576053 190.38679708 -57.9375 186.875 C-57.09937911 184.71619369 -56.26489319 182.55597349 -55.43359375 180.39453125 C-54.99901855 179.2648291 -54.56444336 178.13512695 -54.11669922 176.97119141 C-51.95252713 171.21113922 -49.9799857 165.38788939 -48 159.5625 C-44.46447105 149.24142115 -40.90183889 138.93036983 -37.22842407 128.65744019 C-36.7051085 127.18861491 -36.18581587 125.71834953 -35.67074585 124.24661255 C-34.95019561 122.19030355 -34.2152479 120.13969613 -33.4765625 118.08984375 C-33.05842285 116.91284912 -32.6402832 115.73585449 -32.20947266 114.52319336 C-30.70909136 111.27621299 -29.77481308 109.51609611 -26.8125 107.5 C-24.05519012 107.17520591 -21.60589669 107.31377355 -18.8125 107.5 C-18.95349121 106.54037354 -19.09448242 105.58074707 -19.23974609 104.59204102 C-23.12264226 78.02688839 -25.9723689 52.00857682 -26 25.125 C-26.00117828 24.22213257 -26.00235657 23.31926514 -26.00357056 22.38903809 C-26.00318867 19.81395802 -25.99398494 17.23910417 -25.98046875 14.6640625 C-25.97925018 13.88400848 -25.97803162 13.10395447 -25.97677612 12.30026245 C-25.94898448 9.10698974 -25.82957434 6.55122301 -24.8125 3.5 C-16.95359767 0.27774027 -8.38174892 -0.04814222 0 0 Z " fill="#7FD757" transform="translate(492.8125,488.5)"/>
<path d="M0 0 C5.23142287 4.16756423 10.11586591 8.694245 14.96777344 13.29296875 C16.95718843 15.17317254 18.9955896 16.94901648 21.11621094 18.6796875 C23.41892686 20.61613463 25.28915943 22.43564647 27.19042969 24.7421875 C29.85943906 27.8970034 32.68239854 30.72275944 35.69042969 33.5546875 C47.91323326 45.68447126 61.00365076 64.68801242 61.37792969 82.3671875 C61.21264311 90.83569377 58.45172623 96.9709132 52.37792969 102.8671875 C40.98002656 111.74156964 28.85954698 112.51757554 14.94042969 111.0546875 C7.6511776 109.92376921 0.48356285 108.28972805 -6.69384766 106.60473633 C-21.2980515 103.2091459 -37.04811731 103.71699112 -51.05957031 109.0546875 C-52.33574219 109.4878125 -52.33574219 109.4878125 -53.63769531 109.9296875 C-62.60148416 113.16821766 -70.74024414 118.39774195 -78.83300781 123.36328125 C-109.60717349 142.21553039 -109.60717349 142.21553039 -125.85253906 138.3984375 C-135.59979231 135.27931646 -142.90245094 128.87480754 -148.05957031 120.0546875 C-157.58180216 99.46510695 -148.14498724 68.74949524 -140.87207031 48.6171875 C-129.60756234 18.79662281 -114.63318718 -3.83346623 -84.81396484 -17.58691406 C-54.86707194 -30.67028829 -24.41998634 -18.93614834 0 0 Z " fill="#EA7763" transform="translate(962.0595703125,393.9453125)"/>
<path d="M0 0 C0.86625 0.53625 1.7325 1.0725 2.625 1.625 C10.36718925 9.36718925 14.06808406 19.23620015 14.5 30 C14.0587221 49.99791202 4.48974583 68.0807568 -9.75 81.75 C-20.29165657 90.92725109 -32.36909735 94.76783027 -46.1796875 94.37109375 C-54.41272945 93.57136064 -58.53044017 88.87148017 -63.65234375 82.76953125 C-65 81 -65 81 -66 79 C-69.33312026 80.49494638 -71.8882925 82.41220033 -74.6875 84.75 C-76.13382813 85.94882812 -76.13382813 85.94882812 -77.609375 87.171875 C-78.73967582 88.11447244 -79.86987659 89.05718986 -81 90 C-82.35886449 91.13082208 -83.71826883 92.26099565 -85.078125 93.390625 C-85.78960693 93.98174072 -86.50108887 94.57285645 -87.23413086 95.18188477 C-89.44275027 97.00433227 -91.66802073 98.80495064 -93.89453125 100.60546875 C-96.35497922 102.60370839 -98.69818375 104.6328761 -100.94921875 106.86328125 C-109.05441051 114.282194 -116.84169562 113.79617235 -127.27734375 113.84375 C-141.75673861 113.997403 -155.89195075 119.39120642 -167.75 127.5 C-168.5229541 128.02335938 -169.2959082 128.54671875 -170.09228516 129.0859375 C-177.53443009 134.21612358 -184.36688167 139.87104725 -191 146 C-191.51755859 146.46841309 -192.03511719 146.93682617 -192.56835938 147.41943359 C-200.36693464 154.52859108 -206.41181107 162.38277044 -212.30859375 171.1171875 C-212.76927246 171.78129639 -213.22995117 172.44540527 -213.70458984 173.12963867 C-214.84429295 174.77518438 -215.95752268 176.43899911 -217.06640625 178.10546875 C-221.06522048 182.73131829 -227.06584494 184.90877029 -232.5 187.4375 C-233.12780365 187.73480011 -233.7556073 188.03210022 -234.4024353 188.33840942 C-262.67038397 201.71567523 -292.12969575 212.42980486 -321.42431641 223.30126953 C-372.20681694 241.81769743 -372.20681694 241.81769743 -420.47143555 265.91650391 C-423.63460921 267.75026062 -426.42458345 269.23495882 -430 270 C-430.49861891 263.38596676 -429.41363988 259.83377542 -425.75 254.375 C-425.30470947 253.68913818 -424.85941895 253.00327637 -424.40063477 252.29663086 C-390.15886314 200.87774233 -330.03969568 181.13927672 -274.43988037 162.06185913 C-243.34745656 151.49902817 -243.34745656 151.49902817 -213 139 C-211.78183594 138.45883545 -211.78183594 138.45883545 -210.5390625 137.90673828 C-195.65510216 131.27018008 -181.67258051 123.1852588 -167.6953125 114.8359375 C-99.71309067 74.24112252 -99.71309067 74.24112252 -68 75 C-68.33 74.13375 -68.66 73.2675 -69 72.375 C-73.17150752 57.42959896 -68.92979713 41.26636701 -61.6796875 28.07519531 C-53.65366386 14.17068631 -42.28947968 2.02264757 -26.53515625 -2.74609375 C-17.06767263 -4.91479063 -8.32906447 -5.46356064 0 0 Z " fill="#FE5757" transform="translate(764,643)"/>
<path d="M0 0 C0.99 0.495 0.99 0.495 2 1 C-9.07237277 10.03664504 -20.44093364 18.59751191 -32 27 C-33.46746095 28.07159673 -34.93490921 29.14321084 -36.40234375 30.21484375 C-46.74253165 37.74342999 -57.21394191 45.08004942 -67.72265625 52.37109375 C-69.04595947 53.29317627 -69.04595947 53.29317627 -70.39599609 54.23388672 C-72.11924467 55.40264541 -73.86742076 56.53553803 -75.63916016 57.62939453 C-76.45304199 58.1345459 -77.26692383 58.63969727 -78.10546875 59.16015625 C-78.82758545 59.59078369 -79.54970215 60.02141113 -80.29370117 60.46508789 C-83.16928943 63.05184184 -83.15882008 66.18160462 -83.5703125 69.875 C-85.38483741 83.0715448 -92.43850795 95.11172705 -102.7421875 103.49609375 C-109.97527772 108.31398256 -118.24960066 111.74449748 -127 110 C-133.05928769 107.82646342 -137.81564057 104.88175267 -142 100 C-143.67153188 100.65437252 -145.33641232 101.32568682 -147 102 C-147.68239746 102.26280762 -148.36479492 102.52561523 -149.06787109 102.79638672 C-159.08887925 106.53264098 -159.08887925 106.53264098 -165.94628906 114.10400391 C-166.99458708 118.9157123 -166.8744947 123.77421566 -166.88330078 128.67724609 C-167.36759982 138.31662065 -172.94375517 150.22747232 -179.94921875 156.83984375 C-187.11583261 162.42297721 -193.25682946 164.76219589 -202.3984375 164.53125 C-211.58041498 163.17685853 -218.15059566 156.58472173 -223.9921875 149.76953125 C-226.7980341 145.89920978 -228.84230857 141.8158648 -230.80859375 137.46875 C-231.88183284 134.89850216 -231.88183284 134.89850216 -234 133 C-233.53674316 132.5464917 -233.07348633 132.0929834 -232.59619141 131.62573242 C-227.45982386 126.24723525 -225.4738576 121.34485072 -223.375 114.3125 C-220.19320328 104.88725372 -220.19320328 104.88725372 -215.953125 101.734375 C-212.65941133 100.57461666 -209.39643434 99.79724686 -206 99 C-203.26213323 97.57792195 -200.71836219 95.99200552 -198.12109375 94.33203125 C-196.12898344 93.08100065 -194.12044975 92.01454625 -192 91 C-191.236875 91.639375 -190.47375 92.27875 -189.6875 92.9375 C-185.08658808 96.46843241 -180.60591752 96.67977268 -175 96 C-172.56919086 95.11219252 -170.33337678 94.07652552 -168.04296875 92.875 C-166 92 -166 92 -162 92 C-160.24609375 92.875 -160.24609375 92.875 -158.4375 94 C-152.00113765 97.36174316 -145.07889077 96.83673679 -138.25 94.8125 C-127.55003711 90.67365517 -122.6861224 83.11190112 -118.125 72.875 C-116.32374386 68.31956512 -115.15482887 64.85973397 -116 60 C-118.87594836 57.6930746 -118.87594836 57.6930746 -122.4375 57.9375 C-126.21589487 58.67068885 -126.21589487 58.67068885 -128.125 61.9375 C-128.77871937 63.27803845 -129.40090983 64.63417302 -130 66 C-132.92475074 72.55226844 -135.55385446 78.31258624 -142 82 C-145.875 82.9375 -145.875 82.9375 -149 83 C-150 82 -150 82 -150.23803711 79.46679688 C-149.94012878 75.12802946 -148.69280176 71.58630021 -147.19140625 67.53125 C-146.90522934 66.73271606 -146.61905243 65.93418213 -146.32420349 65.1114502 C-145.41255384 62.57097802 -144.48847338 60.03528283 -143.5625 57.5 C-142.6416441 54.96421205 -141.72363237 52.42749217 -140.81150818 49.8885498 C-140.24489605 48.31277129 -139.6731013 46.73884362 -139.09535217 45.16711426 C-137.63437599 41.11902868 -136.54954546 37.29451738 -136 33 C-134.84242188 32.81824219 -133.68484375 32.63648438 -132.4921875 32.44921875 C-130.95304092 32.19582267 -129.41398298 31.94188781 -127.875 31.6875 C-127.11445312 31.56955078 -126.35390625 31.45160156 -125.5703125 31.33007812 C-119.51412683 30.31201243 -114.85910006 29.09918251 -110.640625 24.3359375 C-108.59956544 20.18578306 -108.53663708 17.16306512 -108.75 12.625 C-108.76804687 11.88894531 -108.78609375 11.15289063 -108.8046875 10.39453125 C-108.85140824 8.59578264 -108.92313817 6.79771289 -109 5 C-101.87485624 8.11097826 -94.63303437 11.73393126 -91 19 C-86.15160017 17.48984268 -81.70535211 15.87861405 -77.1875 13.5625 C-61.88014567 6.61788285 -44.36872804 6.21847026 -27.84204102 5.12646484 C-18.18115123 4.46013838 -9.23737839 3.07912613 0 0 Z " fill="#EA7763" transform="translate(767,601)"/>
<path d="M0 0 C1.7013208 0.00640503 1.7013208 0.00640503 3.43701172 0.01293945 C12.46110631 0.19532902 20.0759929 1.42411864 28.1875 5.5 C28.84806396 5.8297583 29.50862793 6.1595166 30.18920898 6.49926758 C35.82167509 9.60844136 38.27237997 13.08096956 41 18.8125 C41.4132251 19.64007813 41.8264502 20.46765625 42.25219727 21.3203125 C43.59268328 24.03394866 44.89357716 26.76388239 46.1875 29.5 C46.6299707 30.42345215 47.07244141 31.3469043 47.52832031 32.29833984 C56.59426152 51.29629091 65.04467336 70.74267882 71.8125 90.6875 C72.04815674 91.37505371 72.28381348 92.06260742 72.52661133 92.77099609 C74.01887101 97.35808004 74.70945634 101.72487496 75.1875 106.5 C74.22972656 107.02207031 73.27195312 107.54414062 72.28515625 108.08203125 C65.01775223 112.08478473 57.92199705 116.23585009 51 120.8125 C44.38202743 125.1760499 37.62716331 129.24504639 30.75 133.1875 C29.83130127 133.71706299 28.91260254 134.24662598 27.96606445 134.79223633 C26.68542114 135.51963013 26.68542114 135.51963013 25.37890625 136.26171875 C24.61779541 136.69444092 23.85668457 137.12716309 23.07250977 137.57299805 C21.1875 138.5 21.1875 138.5 19.1875 138.5 C19.3525 137.7575 19.5175 137.015 19.6875 136.25 C21.01307036 126.38375791 21.01307036 126.38375791 18.5 117 C13.97073993 112.10350263 9.84464405 108.85244067 3.06640625 108.19921875 C-3.16689735 108.17719294 -7.28724965 108.38319211 -12.8125 111.5 C-15 110.8125 -15 110.8125 -16.8125 109.5 C-17.8025 108.84 -18.7925 108.18 -19.8125 107.5 C-20.25390625 105.0168457 -20.25390625 105.0168457 -20.375 101.86328125 C-20.65334468 96.80088747 -21.09524918 91.82132916 -21.75 86.79296875 C-21.83572266 86.13177032 -21.92144531 85.4705719 -22.00976562 84.78933716 C-22.36236765 82.08046394 -22.72090263 79.37241356 -23.08300781 76.66479492 C-25.22558995 60.56231627 -25.98170795 44.60321876 -25.94287109 28.36791992 C-25.93741607 25.64561629 -25.94290307 22.92347114 -25.94921875 20.20117188 C-25.94855943 18.46093714 -25.94728131 16.7207025 -25.9453125 14.98046875 C-25.94733673 14.17119431 -25.94936096 13.36191986 -25.95144653 12.52812195 C-25.93769539 9.2608199 -25.85305917 6.62167752 -24.8125 3.5 C-16.95359767 0.27774027 -8.38174892 -0.04814222 0 0 Z " fill="#A6A5A5" transform="translate(492.8125,488.5)"/>
<path d="M0 0 C-0.32798584 0.87100342 -0.65597168 1.74200684 -0.99389648 2.6394043 C-2.22439671 5.93171769 -3.4393351 9.22898603 -4.64477539 12.53051758 C-5.16551406 13.94743354 -5.69203685 15.3622397 -6.22485352 16.7746582 C-6.99799864 18.82739129 -7.75261357 20.88556419 -8.49609375 22.94921875 C-8.74319092 23.62932007 -8.99028809 24.30942139 -9.24487305 25.01013184 C-10.77916213 29.51781384 -11.1317827 33.23570311 -10.99609375 38.04296875 C-11.13208008 41.20141602 -11.13208008 41.20141602 -12 44 C-16.04486064 47.61713369 -20.68996522 49.54200828 -25.625 51.625 C-27.00006323 52.25042479 -28.37285962 52.88085613 -29.7434082 53.51611328 C-32.50669977 54.78881721 -35.27982308 56.03390128 -38.06591797 57.25585938 C-43.50934369 59.65114461 -48.84207081 62.27018668 -54.1875 64.875 C-59.50832407 67.44672387 -64.8292871 69.95449532 -70.2890625 72.21875 C-79.95426536 76.31039877 -86.04116826 80.05091949 -91.88671875 88.8515625 C-100.58130217 101.80504538 -114.96130166 110.4361818 -130 114 C-133.15179945 114.24857011 -136.27778126 114.2351844 -139.4375 114.1875 C-140.24509766 114.18685547 -141.05269531 114.18621094 -141.88476562 114.18554688 C-145.70213953 114.15786246 -149.30952996 113.98069876 -153.0703125 113.31640625 C-157.8966043 112.9278082 -161.0018245 114.02320916 -165.4375 115.75 C-179.5860607 120.82212554 -193.01599765 122.54450614 -208 122 C-205.76624579 119.49218184 -203.79188777 118.30684127 -200.67578125 117.08984375 C-199.39030396 116.57151978 -199.39030396 116.57151978 -198.07885742 116.04272461 C-197.16595947 115.67800049 -196.25306152 115.31327637 -195.3125 114.9375 C-185.5032397 110.90028909 -176.76636337 105.93930418 -168 100 C-168.48146484 98.27136719 -168.48146484 98.27136719 -168.97265625 96.5078125 C-172.26480408 83.24007767 -170.23374681 70.10386231 -163.42578125 58.26171875 C-154.10233327 44.28741327 -142.38102635 33.7541853 -127 27 C-125.91138672 26.48759766 -125.91138672 26.48759766 -124.80078125 25.96484375 C-116.033469 22.37442064 -104.747628 22.70571518 -95.875 25.6875 C-90.14255427 28.1147518 -86.35442208 31.63291971 -82 36 C-81.39115967 35.66266846 -80.78231934 35.32533691 -80.1550293 34.9777832 C-77.33485171 33.41842855 -74.5112095 31.86544919 -71.6875 30.3125 C-70.25180664 29.51682617 -70.25180664 29.51682617 -68.78710938 28.70507812 C-51.10362347 19 -51.10362347 19 -47 19 C-48.29981795 23.74319531 -49.7380661 28.40099858 -51.53515625 32.98046875 C-51.94193604 34.02170898 -51.94193604 34.02170898 -52.35693359 35.08398438 C-52.90042959 36.46045749 -53.45378218 37.83308948 -54.01806641 39.20117188 C-55.75244722 43.6032424 -56.41552093 47.19182922 -56 52 C-54.58333333 54.58333333 -54.58333333 54.58333333 -52 56 C-47.68814305 56.46198467 -44.67666162 56.31363888 -41 54 C-37.99408154 48.39062915 -36.11452954 42.4432016 -34.1171875 36.421875 C-33.31033937 34.01916116 -32.50235065 31.61683685 -31.69335938 29.21484375 C-31.14669733 27.56833419 -30.61188687 25.91784343 -30.08886719 24.26367188 C-25.71093666 10.49200001 -25.71093666 10.49200001 -21.56933594 6.88037109 C-19.06238078 5.61367416 -16.69936736 4.75725372 -14 4 C-12.25203125 3.19949219 -12.25203125 3.19949219 -10.46875 2.3828125 C-9.4890625 1.96773437 -8.509375 1.55265625 -7.5 1.125 C-5.99953125 0.47917969 -5.99953125 0.47917969 -4.46875 -0.1796875 C-2 -1 -2 -1 0 0 Z " fill="#EA7763" transform="translate(488,641)"/>
<path d="M0 0 C2.96261594 1.7151987 5.46229277 3.71066411 8 6 C8.60585938 6.5259375 9.21171875 7.051875 9.8359375 7.59375 C20.6527179 17.60753796 26.1057908 32.3948903 27.22265625 46.88964844 C28.02428797 68.07069354 25.99228476 86.74373176 11.5625 103.4375 C4.55041331 110.7585939 -2.83008751 116.85928863 -13.3125 117.4375 C-23.55441773 116.9983097 -32.62612654 111.8611929 -40 105 C-54.97225429 87.21463582 -57.43947204 67.53454822 -56 45 C-54.26657319 30.07375794 -47.460658 14.55018586 -35.58203125 5.0703125 C-23.96769203 -3.39884257 -13.69877271 -5.47128159 0 0 Z " fill="#EA7763" transform="translate(934,206)"/>
<path d="M0 0 C16.26437387 9.20963757 26.30377448 23.80243675 33.2265625 40.71484375 C33.66226563 41.69324219 34.09796875 42.67164063 34.546875 43.6796875 C37.42849888 51.18601545 37.60424142 58.42581209 37.6640625 66.40234375 C37.67429443 67.4598584 37.68452637 68.51737305 37.69506836 69.60693359 C37.56464657 81.26098721 34.48987377 90.51272031 27.2265625 99.71484375 C24.73697287 102.07947328 22.15568075 103.93558597 19.2265625 105.71484375 C18.2984375 106.33359375 17.3703125 106.95234375 16.4140625 107.58984375 C7.75088089 110.64743726 -2.67206951 108.93173453 -10.9375 105.33984375 C-18.59494898 101.46628642 -24.82014019 96.87755353 -30.7734375 90.71484375 C-31.53269531 89.93882812 -32.29195312 89.1628125 -33.07421875 88.36328125 C-46.47272802 73.41433999 -51.88335689 54.66983648 -52.2109375 34.96484375 C-52.23357666 34.00610352 -52.25621582 33.04736328 -52.27954102 32.05957031 C-52.23988177 20.85051371 -47.67352532 11.22378584 -40.18359375 2.9609375 C-28.23223665 -8.25927775 -13.98223378 -6.47909143 0 0 Z " fill="#EA7763" transform="translate(824.7734375,231.28515625)"/>
<path d="M0 0 C0.15855469 0.58007812 0.31710937 1.16015625 0.48046875 1.7578125 C2.54970054 8.68573773 4.79254761 13.18446091 11.3125 16.875 C12.199375 17.24625 13.08625 17.6175 14 18 C12.42394548 21.15210904 9.78289803 21.25583022 6.5 22.375 C-7.37696817 27.33837697 -20.5770279 34.14816971 -33.65234375 40.90625 C-43.20096719 45.82907684 -52.76369239 50.30368774 -62.8125 54.125 C-63.79677979 54.50358154 -64.78105957 54.88216309 -65.79516602 55.2722168 C-71.59615661 57.40602304 -76.82960774 58.58145335 -83 59 C-82.69247803 59.52634033 -82.38495605 60.05268066 -82.06811523 60.5949707 C-77.52760998 68.69315642 -77.58900171 78.48605277 -79.84765625 87.3125 C-85.87411559 103.00172297 -97.80929658 115.08938873 -113 122 C-116.6297269 123.45749652 -120.2854345 124.77645224 -124 126 C-124.99 126.33 -125.98 126.66 -127 127 C-139.90669792 128.18893323 -151.59678237 128.14309548 -161.9375 119.5625 C-167.43044104 112.73793689 -170.55503549 106.46879995 -170.3125 97.5859375 C-168.50200055 82.60405455 -160.40096506 71.45523823 -149 62 C-137.18221199 53.31505712 -125.0856379 48.6280996 -110.4375 48.6875 C-109.63892578 48.67138672 -108.84035156 48.65527344 -108.01757812 48.63867188 C-103.87676507 48.63529713 -100.62521021 48.98086834 -96.78515625 50.58203125 C-93.08655875 52.10120459 -90.9076132 52.29573597 -87 51 C-84.25406209 49.55028123 -81.70330204 47.85180737 -79.125 46.125 C-70.31652787 40.39811859 -61.35379392 34.97264973 -52.3125 29.625 C-51.62623535 29.21861298 -50.9399707 28.81222595 -50.23291016 28.39352417 C-40.1086713 22.40015178 -29.96128359 16.44654483 -19.78637695 10.53955078 C-18.90038818 10.02505371 -18.01439941 9.51055664 -17.1015625 8.98046875 C-15.83940918 8.24836182 -15.83940918 8.24836182 -14.55175781 7.50146484 C-11.00710803 5.41577826 -7.50574526 3.26032959 -4.00927734 1.0949707 C-2 0 -2 0 0 0 Z " fill="#EA7763" transform="translate(493,721)"/>
<path d="M0 0 C12.72069336 8.2599133 22.88396666 20.18655408 28.6875 34.25 C29.24244141 35.42755859 29.24244141 35.42755859 29.80859375 36.62890625 C32.63140932 43.49547839 33.10650942 50.04044363 33.1875 57.375 C33.21505371 58.75196045 33.21505371 58.75196045 33.24316406 60.15673828 C33.16099705 69.33150662 30.18186043 78.53287786 23.6875 85.25 C15.4273379 91.68027112 7.00574829 93.31396545 -3.3125 92.25 C-21.58642243 88.03438865 -36.19166854 77.22449582 -46.33984375 61.51953125 C-52.52640459 51.26576606 -56.62907706 40.24786944 -57.3125 28.25 C-57.40015625 27.2496875 -57.4878125 26.249375 -57.578125 25.21875 C-58.0866828 15.50991932 -55.62920834 8.27382627 -49.26171875 0.86328125 C-34.00312606 -13.79906093 -16.75553553 -9.33827617 0 0 Z " fill="#EA7763" transform="translate(782.3125,344.75)"/>
<path d="M0 0 C0.86625 0.53625 1.7325 1.0725 2.625 1.625 C10.36718925 9.36718925 14.06808406 19.23620015 14.5 30 C14.0587221 49.99791202 4.48974583 68.0807568 -9.75 81.75 C-20.29165657 90.92725109 -32.36909735 94.76783027 -46.1796875 94.37109375 C-54.23651354 93.58847772 -58.55134692 89.02035397 -63.53125 82.9765625 C-70.92782423 73.02266207 -70.81302106 62.24509406 -69.640625 50.35546875 C-66.79369481 32.29285087 -56.06500636 15.67789506 -41.53515625 4.71875 C-29.53305155 -3.41827014 -13.04207207 -8.55512067 0 0 Z " fill="#EA7763" transform="translate(764,643)"/>
<path d="M0 0 C8.97348616 5.67853421 14.34349299 14.7097318 17.3359375 24.79296875 C20.70167624 42.3938025 16.97679566 61.00651679 7.94921875 76.3984375 C0.74158793 87.00044356 -9.89287704 97.71166354 -23 100.265625 C-30.61221726 100.92897536 -36.65067542 100.71546545 -43 96.265625 C-43.67804687 95.80285156 -44.35609375 95.34007812 -45.0546875 94.86328125 C-52.90561224 88.80473744 -57.8951117 78.45299951 -59.625 68.765625 C-59.77283954 67.26770362 -59.89501473 65.76715858 -60 64.265625 C-60.06574219 63.33878906 -60.13148438 62.41195312 -60.19921875 61.45703125 C-60.83628405 43.86084837 -55.04910003 25.88620531 -43.375 12.578125 C-41.94054859 11.1167929 -40.48508008 9.67547588 -39 8.265625 C-38.23236328 7.50378906 -38.23236328 7.50378906 -37.44921875 6.7265625 C-27.32042192 -2.57481149 -12.55947621 -6.1816172 0 0 Z " fill="#EA7763" transform="translate(578,238.734375)"/>
<path d="M0 0 C7.70836256 5.47980626 12.93006299 15.51255783 14.75 24.70703125 C17.08451547 46.1189153 10.08850285 64.64915357 -2.3515625 81.87109375 C-9.53688839 90.70948541 -19.65971935 97.06977858 -31.08203125 98.34375 C-39.2149732 98.58927278 -46.34633508 97.32293393 -52.55859375 91.703125 C-60.65820865 82.13284832 -63.5760464 70.59994614 -63.5 58.375 C-63.49500488 57.31901611 -63.49000977 56.26303223 -63.48486328 55.17504883 C-63.05776224 35.90395535 -53.57176815 18.77889743 -39.8046875 5.5625 C-28.4550428 -4.26403221 -13.43961866 -7.59236467 0 0 Z " fill="#EA7763" transform="translate(312,611)"/>
<path d="M0 0 C1.56469727 2.27124023 1.56469727 2.27124023 3.06640625 5.30859375 C3.62900146 6.43539551 4.19159668 7.56219727 4.77124023 8.72314453 C5.36925799 9.96081353 5.96632121 11.19894413 6.5625 12.4375 C7.18468617 13.70701117 7.80716698 14.97637798 8.42993164 16.24560547 C13.99502612 27.67305265 19.03113311 39.30842838 23.796875 51.09082031 C24.93623987 53.84582676 26.14087721 56.55981683 27.375 59.2734375 C32.92280628 71.7550592 32.92280628 71.7550592 30.875 77.4375 C29.5703125 79.70703125 29.5703125 79.70703125 28 82 C27.48179688 82.91136719 26.96359375 83.82273437 26.4296875 84.76171875 C19.06395178 97.3177287 9.77751495 104.40749502 -4 109 C-14.12284627 109.99382783 -21.14075888 108.5385535 -29.18359375 102.30859375 C-37.70917844 94.58882992 -43.07792819 82.59206671 -44.30151367 71.19042969 C-44.43710186 68.22403084 -44.46781843 65.28179674 -44.4375 62.3125 C-44.42920166 61.25885254 -44.42090332 60.20520508 -44.41235352 59.11962891 C-44.01379426 40.6100263 -37.4219599 24.88256551 -24.6484375 11.5234375 C-20.65710464 7.72048613 -16.84315514 4.7206119 -11.875 2.3125 C-11.02679687 1.89613281 -10.17859375 1.47976563 -9.3046875 1.05078125 C-3.53768912 -1.57857903 -3.53768912 -1.57857903 0 0 Z " fill="#EA7763" transform="translate(1007,282)"/>
<path d="M0 0 C7.76359089 4.35299605 13.93724858 9.18721404 18.65234375 16.76171875 C19.03914307 17.37635986 19.42594238 17.99100098 19.82446289 18.62426758 C23.04732556 23.89326218 25.40554089 29.1602408 27.02734375 35.13671875 C27.25035156 35.92433594 27.47335937 36.71195312 27.703125 37.5234375 C31.80406879 55.29419392 29.77291284 72.86453364 20.46484375 88.51171875 C17.70298862 92.83628637 17.70298862 92.83628637 15.015625 94.03125 C12.09314803 94.18627334 10.1666197 92.65455112 7.64453125 91.32421875 C-1.1932772 87.31422805 -10.05283112 86.0106917 -19.64819336 86.01782227 C-31.72096214 85.9928393 -31.72096214 85.9928393 -35.53125 83.38671875 C-37.25497536 80.66457584 -38.10015918 78.24020614 -38.97265625 75.13671875 C-39.42735578 73.85879848 -39.89142051 72.58418366 -40.36328125 71.3125 C-43.347481 63.06081959 -45.15585578 55.73540728 -45.09765625 46.94921875 C-45.09282227 46.19108887 -45.08798828 45.43295898 -45.08300781 44.65185547 C-44.9297921 30.31392943 -42.68203923 18.3339836 -32.97265625 7.13671875 C-23.19297669 -2.05444912 -12.53097773 -6.27650027 0 0 Z " fill="#EA7763" transform="translate(472.97265625,228.86328125)"/>
<path d="M0 0 C6.52054738 5.57125528 11.20812909 11.81425715 12.63671875 20.3984375 C13.79123262 38.11888297 7.08976357 52.29450334 -4.36328125 65.3984375 C-14.78962499 76.41011984 -27.74578528 83.33085632 -42.98828125 83.7734375 C-51.83023231 83.51184131 -58.11866186 81.54914115 -64.63671875 75.43359375 C-71.8712197 66.90604851 -72.12181969 56.02865926 -71.36328125 45.3984375 C-70.48084675 41.47034333 -69.10179554 38.02169626 -67.36328125 34.3984375 C-66.93917969 33.48449219 -66.51507812 32.57054687 -66.078125 31.62890625 C-62.52189984 24.54617369 -57.94364958 18.98810645 -52.36328125 13.3984375 C-51.65171875 12.67527344 -50.94015625 11.95210937 -50.20703125 11.20703125 C-38.85588026 0.36997224 -15.14251597 -9.59593147 0 0 Z " fill="#EA7763" transform="translate(796.36328125,741.6015625)"/>
<path d="M0 0 C8.99166553 5.87916592 13.26498749 16.16007102 15.5168457 26.33544922 C18.62700779 43.48770239 15.73775853 61.45167213 6 76 C5.54882812 76.69480469 5.09765625 77.38960937 4.6328125 78.10546875 C-1.32511317 86.68810221 -8.90487973 91.41113678 -19 94 C-26.26819697 95.29185561 -31.98395466 93.10048862 -38 89 C-46.66706833 81.41000424 -52.09655189 69.52674617 -53.30322266 58.13818359 C-53.43662183 55.12695951 -53.46792484 52.13897597 -53.4375 49.125 C-53.42920166 48.06434326 -53.42090332 47.00368652 -53.41235352 45.91088867 C-53.24760651 38.29207259 -52.41195995 31.89521458 -49 25 C-48.53722656 23.95199219 -48.07445312 22.90398438 -47.59765625 21.82421875 C-42.71774386 11.67066022 -34.33283587 0.39708634 -23.2734375 -3.515625 C-14.78916267 -5.32327118 -7.61104959 -4.06728047 0 0 Z " fill="#EA7763" transform="translate(211,647)"/>
<path d="M0 0 C2.28985602 1.14492801 4.49295113 2.29806347 6.6875 3.625 C12.47243665 6.02629446 17.98464703 5.31090293 24 4 C24.48066535 5.89545392 24.95946743 7.79138039 25.4375 9.6875 C25.70433594 10.74324219 25.97117187 11.79898438 26.24609375 12.88671875 C30.28146396 29.55091596 27.13967066 46.24484988 18.25 60.9375 C14.99857064 65.51982532 10.86643294 68.30134173 6 71 C5.38511719 71.37125 4.77023437 71.7425 4.13671875 72.125 C-1.77412852 74.54552978 -9.20235555 74.11547106 -15.046875 71.78515625 C-25.25571655 65.65696747 -31.94893006 57.21262186 -36.80859375 46.46875 C-37.88183284 43.89850216 -37.88183284 43.89850216 -40 42 C-39.53674316 41.5464917 -39.07348633 41.0929834 -38.59619141 40.62573242 C-33.45982386 35.24723525 -31.4738576 30.34485072 -29.375 23.3125 C-26.19320328 13.88725372 -26.19320328 13.88725372 -21.953125 10.734375 C-18.65909104 9.57450389 -15.39724805 8.7955324 -12 8 C-7.67276926 5.80527382 -3.44334341 3.44334341 0 0 Z " fill="#EA7763" transform="translate(573,692)"/>
<path d="M0 0 C6.27325721 3.82474497 11.67767705 8.03817524 16 14 C15.64808594 14.47566406 15.29617188 14.95132812 14.93359375 15.44140625 C-0.04225608 36.67348577 -5.31952144 63.10974508 -11 88 C-16.43490108 85.91566326 -19.83126767 83.01462023 -24 79 C-25.03060547 78.00806641 -25.03060547 78.00806641 -26.08203125 76.99609375 C-37.68969644 64.94454079 -42.38347367 48.10415159 -42.2109375 31.73046875 C-41.65824809 21.95605417 -39.39064731 12.63288976 -33 5 C-22.91729498 -3.55340585 -12.1582188 -5.45398489 0 0 Z " fill="#EA7763" transform="translate(404,310)"/>
<path d="M0 0 C0.9921875 2.44140625 0.9921875 2.44140625 1.875 5.5625 C4.59777922 14.2240203 8.31841668 20.87894445 16 26 C18.9385572 27.5091155 21.91856009 28.81214335 25 30 C25 30.66 25 31.32 25 32 C18.07 35.3 11.14 38.6 4 42 C3.34 41.01 2.68 40.02 2 39 C-0.57725508 35.92161199 -2.01776375 34.20463255 -6 33.375 C-10.05051925 34.21885818 -11.35079455 35.85831405 -14 39 C-15.18394632 42.31956532 -15.18394632 42.31956532 -16 45.875 C-17.66244935 50.99685042 -19.13153918 53.74302814 -23.89257812 56.47705078 C-30.93464519 60 -30.93464519 60 -34 60 C-33.3655622 56.30690418 -32.31477022 53.04269894 -30.9375 49.5625 C-28.96994456 44.26578371 -28.1810209 40.45693729 -30 35 C-31.57879955 34.72280619 -33.16353067 34.47925857 -34.75 34.25 C-35.63171875 34.11078125 -36.5134375 33.9715625 -37.421875 33.828125 C-40.06761796 33.78698114 -40.06761796 33.78698114 -42.11328125 35.4296875 C-44.72902349 38.99316243 -46.005436 42.71886115 -47.4375 46.875 C-47.74695557 47.71909424 -48.05641113 48.56318848 -48.37524414 49.43286133 C-49.7752961 53.28510119 -51.07388947 57.08718161 -52 61.08203125 C-53.46969872 66.73424757 -54.73452612 70.49984462 -59.796875 73.63671875 C-69.74154939 79 -69.74154939 79 -74 79 C-73.33897232 76.51697434 -72.66546233 74.03798479 -71.98193359 71.56103516 C-71.47344505 69.71697403 -70.96611661 67.87254067 -70.47467041 66.02386475 C-61.57439639 32.60740811 -61.57439639 32.60740811 -49.47045898 25.09326172 C-45.38057298 22.9881591 -41.24150311 21.09400973 -36.99316406 19.33154297 C-32.26188918 17.2267817 -28.05508013 14.41810684 -23.75 11.5625 C-22.22602714 10.58790326 -20.70006782 9.61640381 -19.171875 8.6484375 C-18.46611328 8.19952148 -17.76035156 7.75060547 -17.03320312 7.28808594 C-14.03897842 5.39116836 -11.03250736 3.52296498 -8 1.6875 C-7.0925 1.13449219 -6.185 0.58148437 -5.25 0.01171875 C-3 -1 -3 -1 0 0 Z " fill="#FD5857" transform="translate(569,596)"/>
<path d="M0 0 C0.66 0 1.32 0 2 0 C3.18237305 1.45507812 3.18237305 1.45507812 4.51171875 3.53125 C5.01429199 4.30936035 5.51686523 5.0874707 6.03466797 5.88916016 C6.85281982 7.18152588 6.85281982 7.18152588 7.6875 8.5 C8.26129395 9.39638184 8.83508789 10.29276367 9.42626953 11.21630859 C11.29221659 14.13917312 13.14638434 17.06930279 15 20 C15.60634277 20.95165039 16.21268555 21.90330078 16.83740234 22.88378906 C26.67763491 38.33313792 36.02080469 54.03610554 45 70 C45.58249512 71.03431152 46.16499023 72.06862305 46.76513672 73.13427734 C47.31572754 74.12508301 47.86631836 75.11588867 48.43359375 76.13671875 C48.92786865 77.02447998 49.42214355 77.91224121 49.93139648 78.8269043 C51 81 51 81 51 83 C49.7625 82.5875 48.525 82.175 47.25 81.75 C46.41984375 81.47849121 45.5896875 81.20698242 44.734375 80.92724609 C42.91905586 80.31165841 41.11607356 79.6583508 39.328125 78.96728516 C31.63995318 76.10413139 24.91063263 75.44386446 16.75 75.625 C15.63109375 75.62628906 14.5121875 75.62757813 13.359375 75.62890625 C7.20830449 75.69418884 1.90653765 76.32959908 -4 78 C-5.32 78 -6.64 78 -8 78 C-8.10826856 70.71392705 -7.80868966 63.51409202 -7.25 56.25 C-7.16492188 55.14253418 -7.07984375 54.03506836 -6.9921875 52.89404297 C-5.53295422 35.16879548 -3.02282331 17.52192393 0 0 Z " fill="#EA7662" transform="translate(476,414)"/>
<path d="M0 0 C-0.32798584 0.87100342 -0.65597168 1.74200684 -0.99389648 2.6394043 C-2.22439671 5.93171769 -3.4393351 9.22898603 -4.64477539 12.53051758 C-5.16551406 13.94743354 -5.69203685 15.3622397 -6.22485352 16.7746582 C-6.99799864 18.82739129 -7.75261357 20.88556419 -8.49609375 22.94921875 C-8.74319092 23.62932007 -8.99028809 24.30942139 -9.24487305 25.01013184 C-10.77916213 29.51781384 -11.1317827 33.23570311 -10.99609375 38.04296875 C-11.13208008 41.20141602 -11.13208008 41.20141602 -12 44 C-16.04486064 47.61713369 -20.68996522 49.54200828 -25.625 51.625 C-27.00006323 52.25042479 -28.37285962 52.88085613 -29.7434082 53.51611328 C-32.50669977 54.78881721 -35.27982308 56.03390128 -38.06591797 57.25585938 C-42.55516456 59.23127461 -46.96482619 61.35919411 -51.37426758 63.50610352 C-55.89866765 65.70764055 -60.45123765 67.84938902 -65 70 C-66.88032138 70.89168874 -68.76052989 71.78361553 -70.640625 72.67578125 C-75.09213273 74.78728578 -79.54546833 76.89488293 -84 79 C-84.33 78.34 -84.66 77.68 -85 77 C-84.29296875 75.1171875 -84.29296875 75.1171875 -83.1875 72.875 C-78.50717634 62.68841322 -77.09001244 52.52326359 -81 41.75 C-81.64732437 40.15866093 -82.30686674 38.57192722 -83 37 C-74.84359234 32.31440411 -66.65561526 27.726287 -58.25 23.5 C-57.58355469 23.16226563 -56.91710937 22.82453125 -56.23046875 22.4765625 C-53.20234775 20.97182886 -50.3424995 19.60772718 -47 19 C-48.29981795 23.74319531 -49.7380661 28.40099858 -51.53515625 32.98046875 C-51.80634277 33.67462891 -52.0775293 34.36878906 -52.35693359 35.08398438 C-52.90042959 36.46045749 -53.45378218 37.83308948 -54.01806641 39.20117188 C-55.75244722 43.6032424 -56.41552093 47.19182922 -56 52 C-54.58333333 54.58333333 -54.58333333 54.58333333 -52 56 C-47.68814305 56.46198467 -44.67666162 56.31363888 -41 54 C-37.99408154 48.39062915 -36.11452954 42.4432016 -34.1171875 36.421875 C-33.31033937 34.01916116 -32.50235065 31.61683685 -31.69335938 29.21484375 C-31.14669733 27.56833419 -30.61188687 25.91784343 -30.08886719 24.26367188 C-25.71093666 10.49200001 -25.71093666 10.49200001 -21.56933594 6.88037109 C-19.06238078 5.61367416 -16.69936736 4.75725372 -14 4 C-12.25203125 3.19949219 -12.25203125 3.19949219 -10.46875 2.3828125 C-9.4890625 1.96773437 -8.509375 1.55265625 -7.5 1.125 C-6.4996875 0.69445312 -5.499375 0.26390625 -4.46875 -0.1796875 C-2 -1 -2 -1 0 0 Z " fill="#FD5857" transform="translate(488,641)"/>
<path d="M0 0 C0.99 0.495 0.99 0.495 2 1 C-9.07237277 10.03664504 -20.44093364 18.59751191 -32 27 C-33.46746095 28.07159673 -34.93490921 29.14321084 -36.40234375 30.21484375 C-44.8933181 36.39799036 -53.46018278 42.47287247 -62.0625 48.5 C-63.01415039 49.1707959 -63.96580078 49.8415918 -64.94628906 50.53271484 C-70.46399028 54.3803556 -76.04020213 57.87728267 -82 61 C-82.03738281 59.85144531 -82.07476563 58.70289063 -82.11328125 57.51953125 C-82.54923374 46.46186499 -83.0132166 35.37743751 -88.25 25.375 C-88.8275 24.26125 -89.405 23.1475 -90 22 C-89 19 -89 19 -85.66796875 17.09765625 C-66.97574984 8.31175743 -48.20667445 6.47076085 -27.84033203 5.12573242 C-18.17992278 4.46058332 -9.23677511 3.07892504 0 0 Z " fill="#FD5858" transform="translate(767,601)"/>
<path d="M0 0 C0.15855469 0.58007812 0.31710937 1.16015625 0.48046875 1.7578125 C2.54970054 8.68573773 4.79254761 13.18446091 11.3125 16.875 C12.199375 17.24625 13.08625 17.6175 14 18 C12.42394548 21.15210904 9.78289803 21.25583022 6.5 22.375 C-7.37696817 27.33837697 -20.5770279 34.14816971 -33.65234375 40.90625 C-43.16014448 45.80890955 -52.69282912 50.29126837 -62.6875 54.125 C-63.65502197 54.50358154 -64.62254395 54.88216309 -65.61938477 55.2722168 C-71.77596288 57.55245058 -78.36068496 59.86910218 -85 59 C-87.4918123 57.22114824 -88.40528271 55.69452232 -90 53 C-74.6761089 42.73022358 -58.75704028 33.46093831 -42.86938477 24.10198975 C-39.16904065 21.92066178 -35.47346095 19.7312798 -31.77709961 17.54321289 C-29.15103284 15.98986806 -26.52303185 14.43984694 -23.89453125 12.890625 C-20.57313088 10.93227396 -17.25895502 8.96237165 -13.94921875 6.984375 C-12.75703735 6.27486694 -12.75703735 6.27486694 -11.54077148 5.55102539 C-10.05773269 4.66828302 -8.57663897 3.78226117 -7.09790039 2.89233398 C-2.22548149 0 -2.22548149 0 0 0 Z " fill="#FD5857" transform="translate(493,721)"/>
<path d="M0 0 C0.99 1.485 0.99 1.485 2 3 C0.19015625 3.05607422 0.19015625 3.05607422 -1.65625 3.11328125 C-3.27086178 3.17899219 -4.88544378 3.24543771 -6.5 3.3125 C-7.29148437 3.33505859 -8.08296875 3.35761719 -8.8984375 3.38085938 C-16.61868067 3.72890312 -23.43745727 5.58882072 -29.22265625 10.98046875 C-45.09866898 29.01980629 -52.2223397 56.91742588 -56 80 C-61.37089255 75.67344767 -63.59316494 70.71067846 -65 64 C-67.01632992 45.2714787 -61.75383968 29.40371706 -50.6875 14.1875 C-39.04347293 0.02233314 -17.22493449 -11.5937059 0 0 Z " fill="#EA7763" transform="translate(636,329)"/>
<path d="M0 0 C0.78246094 -0.02578125 1.56492187 -0.0515625 2.37109375 -0.078125 C4.5625 0.25 4.5625 0.25 6.34765625 1.328125 C8.89634758 5.36013829 7.70709656 10.11088479 6.76953125 14.5546875 C5.10061034 20.53073052 3.40807663 26.19440348 -1.79785156 29.95507812 C-7.72587586 33.16368803 -15.55340107 37.25 -22.4375 37.25 C-20.83526344 30.3222343 -18.6143063 23.65133911 -16.125 17 C-15.85357178 16.24412598 -15.58214355 15.48825195 -15.30249023 14.70947266 C-12.4779786 7.34392215 -8.54709726 0.16841571 0 0 Z " fill="#A5A6A4" transform="translate(487.4375,611.75)"/>
<path d="M0 0 C-0.7734375 0.37125 -0.7734375 0.37125 -1.5625 0.75 C-2.7690625 1.36875 -2.7690625 1.36875 -4 2 C-5.134375 2.5775 -6.26875 3.155 -7.4375 3.75 C-13.30045971 6.74269405 -16.33017078 11.99450533 -18.36898804 17.98899841 C-18.60558136 18.72352737 -18.84217468 19.45805634 -19.0859375 20.21484375 C-19.62984474 21.80416094 -20.1741272 23.39334975 -20.71875 24.98242188 C-21.5504259 27.45955089 -22.37537764 29.93864725 -23.19238281 32.4206543 C-29.06976901 50.15311558 -29.06976901 50.15311558 -36 55 C-36.55905029 55.42200684 -37.11810059 55.84401367 -37.6940918 56.27880859 C-41.49492994 59 -41.49492994 59 -44 59 C-43.21586058 54.0532615 -41.52159643 49.4637431 -39.875 44.75390625 C-39.24471988 42.92906125 -38.61451382 41.10419067 -37.984375 39.27929688 C-36.99181526 36.41733441 -35.99770978 33.55592011 -35.00195312 30.69506836 C-34.03890649 27.92440225 -33.08168616 25.15177381 -32.125 22.37890625 C-31.82706543 21.52873428 -31.52913086 20.67856232 -31.22216797 19.80262756 C-29.75521252 15.54318182 -28.56715322 11.4931441 -28 7 C-27.34 7.66 -26.68 8.32 -26 9 C-25.39003174 8.6918335 -24.78006348 8.38366699 -24.15161133 8.06616211 C-21.37890041 6.67545988 -18.59605015 5.30636897 -15.8125 3.9375 C-14.85279297 3.45216797 -13.89308594 2.96683594 -12.90429688 2.46679688 C-11.97294922 2.01240234 -11.04160156 1.55800781 -10.08203125 1.08984375 C-8.80162964 0.45357056 -8.80162964 0.45357056 -7.49536133 -0.19555664 C-4.58184107 -1.13480419 -2.906181 -0.83976569 0 0 Z " fill="#A6A6A2" transform="translate(599,628)"/>
<path d="M0 0 C2.16822394 1.15512367 3.32892334 2.4035091 4.8515625 4.328125 C6.73154874 6.67187442 8.62807082 8.86267014 10.7890625 10.953125 C7.46809933 12.3189491 4.13343497 13.64569327 0.7890625 14.953125 C0.10585938 15.22640625 -0.57734375 15.4996875 -1.28125 15.78125 C-14.16261556 20.52967495 -27.62791597 21.44672067 -41.2109375 20.953125 C-38.970137 18.43690392 -36.97255087 17.24246765 -33.8515625 16.0078125 C-32.98974365 15.65702637 -32.1279248 15.30624023 -31.23999023 14.94482422 C-29.86435913 14.39205811 -29.86435913 14.39205811 -28.4609375 13.828125 C-20.80565584 10.68071232 -13.71056789 7.22418615 -6.83105469 2.60888672 C-2.74583459 -0.05821557 -2.74583459 -0.05821557 0 0 Z " fill="#FD5858" transform="translate(321.2109375,742.046875)"/>
<path d="M0 0 C1 2 1 2 -0.07421875 5.34375 C-0.60358704 6.73239496 -1.14190226 8.11765101 -1.6875 9.5 C-1.967146 10.22106934 -2.24679199 10.94213867 -2.53491211 11.68505859 C-3.09614022 13.12941702 -3.66030846 14.57263676 -4.22753906 16.01464844 C-4.87989094 17.69129998 -5.50201572 19.37966557 -6.1171875 21.0703125 C-8.03348119 26.24905661 -9.86860721 30.25292282 -14 34 C-17.75 34.9375 -17.75 34.9375 -21 35 C-22 34 -22 34 -22.22265625 31.0625 C-22.07567125 22.9472716 -19.37231181 13.82581732 -15 7 C-10.71244186 3.18832135 -5.45248542 1.48767942 0 0 Z " fill="#A5A6A3" transform="translate(549,649)"/>
<path d="M0 0 C0.515625 0.268125 1.03125 0.53625 1.5625 0.8125 C2.366875 1.204375 3.17125 1.59625 4 2 C5.03125 2.515625 6.0625 3.03125 7.125 3.5625 C11.58523421 5.4865226 16.19740469 5.71976808 21 6 C21 6.99 21 7.98 21 9 C19.53466797 10.22680664 19.53466797 10.22680664 17.4921875 11.41015625 C16.75226562 11.84263672 16.01234375 12.27511719 15.25 12.72070312 C14.46625 13.16349609 13.6825 13.60628906 12.875 14.0625 C12.11445312 14.50916016 11.35390625 14.95582031 10.5703125 15.41601562 C6.47313164 17.77895872 2.58104726 19.70471986 -2 21 C-2.53181175 18.75256955 -3.05007126 16.50192898 -3.5625 14.25 C-3.99755859 12.37054687 -3.99755859 12.37054687 -4.44140625 10.453125 C-5.19981369 5.76478808 -5.19981369 5.76478808 -4 3 C-1.9375 1.25 -1.9375 1.25 0 0 Z " fill="#FD5857" transform="translate(602,692)"/>
<path d="M0 0 C4.34079341 0.17022719 6.52038044 0.61222249 9.9375 3.375 C12.61880777 7.08072768 12.69888301 10.77999627 12.4921875 15.2421875 C11.38495584 21.44619981 8.05838741 25.45480541 3 29 C0.90049801 19.23629656 -0.18776113 9.99306462 0 0 Z " fill="#FD5757" transform="translate(653,563)"/>
<path d="M0 0 C-4.60816822 18.36285214 -4.60816822 18.36285214 -9.4375 23.6875 C-12 25 -12 25 -14.75 24.8125 C-17 24 -17 24 -18 23 C-17.95420558 17.66494954 -17.49725976 11.19863328 -14 7 C-4.15324165 0 -4.15324165 0 0 0 Z " fill="#FB5A57" transform="translate(606,659)"/>
<path d="M0 0 C0.804375 0.12375 1.60875 0.2475 2.4375 0.375 C4.47781755 3.43547632 4.75343524 4.30995994 4.8125 7.8125 C4.84085938 8.57433594 4.86921875 9.33617187 4.8984375 10.12109375 C4.24877663 13.29782532 2.94104083 14.34655355 0.4375 16.375 C-1.60712154 17.52973445 -3.69413807 18.61187038 -5.8125 19.625 C-6.89015625 20.14578125 -7.9678125 20.6665625 -9.078125 21.203125 C-9.89796875 21.58984375 -10.7178125 21.9765625 -11.5625 22.375 C-7.44266194 1.08917004 -7.44266194 1.08917004 0 0 Z " fill="#A5A6A2" transform="translate(603.5625,643.625)"/>
<path d="M0 0 C1.52519276 0.08937803 3.04681929 0.24537146 4.5625 0.4375 C5.38878906 0.53933594 6.21507812 0.64117188 7.06640625 0.74609375 C7.70449219 0.82988281 8.34257813 0.91367187 9 1 C10 4 10 4 9.125 6.6875 C5.20783944 12.79366205 -0.09872727 17.61015997 -7 20 C-6.28298649 15.73051048 -4.96429029 11.81936489 -3.5 7.75 C-3.0565625 6.50734375 -2.613125 5.2646875 -2.15625 3.984375 C-1 1 -1 1 0 0 Z " fill="#E67B63" transform="translate(562,667)"/>
<path d="M0 0 C-1.19305561 5.84597247 -3.25780913 10.19334338 -8 14 C-13.86956522 15.56521739 -13.86956522 15.56521739 -17 14 C-17 11.69 -17 9.38 -17 7 C-14.73272667 5.82592979 -12.46165376 4.66060261 -10.1875 3.5 C-9.22360352 2.99919922 -9.22360352 2.99919922 -8.24023438 2.48828125 C-5.30452301 0.99760916 -3.33873483 0 0 0 Z " fill="#A6A5A2" transform="translate(512,668)"/>
<path d="M0 0 C-1.15663624 4.65698277 -2.23620282 8.81444483 -5.875 12.125 C-9 14 -9 14 -11.8125 13.875 C-14 13 -14 13 -15 12 C-15.4375 9.75 -15.4375 9.75 -15 7 C-10.27718583 2.38452251 -6.65222969 -0.36956832 0 0 Z " fill="#F95C57" transform="translate(526,712)"/>
</svg>
